<?xml version="1.0" encoding="UTF-8"?>
<svg id="Layer_2" data-name="Layer 2" xmlns="http://www.w3.org/2000/svg" viewBox="0 0 65.31 65.31">
  <defs>
    <style>
      .cls-1 {
        fill: #163b23;
        stroke-width: 0px;
      }

      .cls-2 {
        fill: none;
        stroke: #163b23;
        stroke-miterlimit: 10;
      }
    </style>
  </defs>
  <g id="Layer_1-2" data-name="Layer 1">
    <g>
      <path class="cls-1" d="m53.1,45.17l-.43-.04c-.25-.03-.48-.04-.71-.08-1.57-.21-2.98-.76-4.09-1.63l-.38-.28.22-.4c.28-.54.58-1.08.87-1.61.65-1.14,1.24-2.21,1.7-3.35,1.57-3.95,1.66-8.26.3-13.61-.44-1.75-1.09-3.04-2.02-4.08-.66-.75-1.44-1.14-2.23-1.14s-1.53.38-2.16,1.09c-.52.57-.98,1.3-1.35,2.09-1.37,3.03-1.59,6.31-1.64,8.82-.08,4.13,1.13,7.89,3.57,11.16.08.1.58.85.58.85l-.39.31c-1.48,1.22-3.43,1.89-5.52,1.89s-3.99-.66-5.25-1.8l-.31-.28.19-.38c.28-.54.58-1.09.88-1.62.65-1.14,1.26-2.23,1.7-3.38,1.66-4.34,1.64-9.09-.05-14.53-.47-1.49-1.13-2.6-2.05-3.43-.57-.52-1.23-.79-1.89-.79s-1.32.28-1.87.82c-.47.44-.88.97-1.2,1.54-1.27,2.19-1.68,4.66-1.9,6.58-.4,3.57-.18,6.46.71,9.12.66,1.97,1.67,3.82,2.98,5.48l.31.39-.36.35c-1.27,1.22-3.24,1.9-5.41,1.9s-4.18-.69-5.56-1.88l-.4-.35.34-.41c1.24-1.58,2.15-3.19,2.77-4.91,1.44-4,1.5-8.28.18-13.44-.41-1.58-1.02-2.86-1.88-3.89-.67-.83-1.52-1.28-2.36-1.28s-1.64.43-2.33,1.23c-.36.43-.6.76-.75,1.1-2.12,4.33-2.64,9-1.58,14.32.48,2.37,1.58,4.62,3.38,6.89l.23.51-.4.34c-.08.06-.14.12-.22.17-1.41,1.01-3.08,1.55-5.1,1.66-.17.01-.4.05-.53.19-.09.09-.13.25-.12.45.04.43.39.52.73.52.63-.03,1.23-.08,1.77-.18,1.63-.28,3.15-.98,4.53-2.07l.31-.25.34.23c2.2,1.53,4.42,2.31,6.59,2.31s4.34-.76,6.49-2.28l.32-.22.31.22c2.19,1.5,4.38,2.27,6.53,2.27s4.36-.76,6.55-2.29l.32-.22.83.61c1.77,1.23,3.76,1.87,5.88,1.89.39,0,.63-.21.65-.54.01-.28-.05-.57-.63-.63Zm-34.12-3.02l-.43-.54c-1.88-2.38-3-5.03-3.37-7.85-.44-3.56-.12-6.96.96-10.12.3-.88.8-1.79,1.48-2.71.48-.65,1-.79,1.35-.79.48,0,.96.26,1.4.76,1.18,1.35,1.66,3.03,1.94,4.35.98,4.61.88,8.37-.35,11.79-.6,1.68-1.44,3.17-2.55,4.56l-.43.54Zm13.83.22l-.51-.65c-1.7-2.18-2.71-4.26-3.17-6.54-.83-4.09-.54-8.13.85-12.03.22-.6.52-1.19.92-1.77.54-.82,1.14-1.22,1.76-1.22s1.22.41,1.72,1.23c.65,1.08,1.11,2.12,1.36,3.12,1.37,5.38,1.18,9.71-.6,13.65-.36.8-.8,1.55-1.27,2.34-.22.38-.44.75-.67,1.15l-.4.71Zm13.94-.76l-.43.54-.43-.54c-1.68-2.12-2.76-4.43-3.2-6.88-.7-3.95-.39-7.82.93-11.5.25-.7.65-1.44,1.17-2.12.47-.63,1-.97,1.57-.97.4,0,.98.18,1.52,1.04.79,1.26,1.32,2.46,1.61,3.59,1.2,4.74,1.11,8.86-.3,12.58-.58,1.57-1.39,2.97-2.43,4.27Z"/>
      <path class="cls-1" d="m53.1,45.17l-.43-.04c-.25-.03-.48-.04-.71-.08-1.57-.21-2.98-.76-4.09-1.63l-.38-.28.22-.4c.28-.54.58-1.08.87-1.61.65-1.14,1.24-2.21,1.7-3.35,1.57-3.95,1.66-8.26.3-13.61-.44-1.75-1.09-3.04-2.02-4.08-.66-.75-1.44-1.14-2.23-1.14s-1.53.38-2.16,1.09c-.52.57-.98,1.3-1.35,2.09-1.37,3.03-1.59,6.31-1.64,8.82-.08,4.13,1.13,7.89,3.57,11.16.08.1.58.85.58.85l-.39.31c-1.48,1.22-3.43,1.89-5.52,1.89s-3.99-.66-5.25-1.8l-.31-.28.19-.38c.28-.54.58-1.09.88-1.62.65-1.14,1.26-2.23,1.7-3.38,1.66-4.34,1.64-9.09-.05-14.53-.47-1.49-1.13-2.6-2.05-3.43-.57-.52-1.23-.79-1.89-.79s-1.32.28-1.87.82c-.47.44-.88.97-1.2,1.54-1.27,2.19-1.68,4.66-1.9,6.58-.4,3.57-.18,6.46.71,9.12.66,1.97,1.67,3.82,2.98,5.48l.31.39-.36.35c-1.27,1.22-3.24,1.9-5.41,1.9s-4.18-.69-5.56-1.88l-.4-.35.34-.41c1.24-1.58,2.15-3.19,2.77-4.91,1.44-4,1.5-8.28.18-13.44-.41-1.58-1.02-2.86-1.88-3.89-.67-.83-1.52-1.28-2.36-1.28s-1.64.43-2.33,1.23c-.36.43-.6.76-.75,1.1-2.12,4.33-2.64,9-1.58,14.32.48,2.37,1.58,4.62,3.38,6.89l.23.51-.4.34c-.08.06-.14.12-.22.17-1.41,1.01-3.08,1.55-5.1,1.66-.17.01-.4.05-.53.19-.09.09-.13.25-.12.45.04.43.39.52.73.52.63-.03,1.23-.08,1.77-.18,1.63-.28,3.15-.98,4.53-2.07l.31-.25.34.23c2.2,1.53,4.42,2.31,6.59,2.31s4.34-.76,6.49-2.28l.32-.22.31.22c2.19,1.5,4.38,2.27,6.53,2.27s4.36-.76,6.55-2.29l.32-.22.83.61c1.77,1.23,3.76,1.87,5.88,1.89.39,0,.63-.21.65-.54.01-.28-.05-.57-.63-.63Zm-34.12-3.02l-.43-.54c-1.88-2.38-3-5.03-3.37-7.85-.44-3.56-.12-6.96.96-10.12.3-.88.8-1.79,1.48-2.71.48-.65,1-.79,1.35-.79.48,0,.96.26,1.4.76,1.18,1.35,1.66,3.03,1.94,4.35.98,4.61.88,8.37-.35,11.79-.6,1.68-1.44,3.17-2.55,4.56l-.43.54Zm13.83.22l-.51-.65c-1.7-2.18-2.71-4.26-3.17-6.54-.83-4.09-.54-8.13.85-12.03.22-.6.52-1.19.92-1.77.54-.82,1.14-1.22,1.76-1.22s1.22.41,1.72,1.23c.65,1.08,1.11,2.12,1.36,3.12,1.37,5.38,1.18,9.71-.6,13.65-.36.8-.8,1.55-1.27,2.34-.22.38-.44.75-.67,1.15l-.4.71Zm13.94-.76l-.43.54-.43-.54c-1.68-2.12-2.76-4.43-3.2-6.88-.7-3.95-.39-7.82.93-11.5.25-.7.65-1.44,1.17-2.12.47-.63,1-.97,1.57-.97.4,0,.98.18,1.52,1.04.79,1.26,1.32,2.46,1.61,3.59,1.2,4.74,1.11,8.86-.3,12.58-.58,1.57-1.39,2.97-2.43,4.27Z"/>
    </g>
    <rect class="cls-2" x=".5" y=".5" width="64.31" height="64.31" rx="4.61" ry="4.61"/>
  </g>
</svg>