<?xml version="1.0" encoding="UTF-8"?>
<svg id="Layer_2" data-name="Layer 2" xmlns="http://www.w3.org/2000/svg" viewBox="0 0 65.31 65.31">
  <defs>
    <style>
      .cls-1 {
        fill: #163b23;
        stroke-width: 0px;
      }

      .cls-2 {
        fill: none;
        stroke: #163b23;
        stroke-miterlimit: 10;
      }
    </style>
  </defs>
  <g id="Layer_1-2" data-name="Layer 1">
    <g>
      <g>
        <path class="cls-1" d="m45.36,36.53c-.32-.26-.63-.61-.6-1.24.08-1.02-.3-1.93-1.13-2.8-.84-.87-1.9-1.53-3.23-2.01-2.5-.91-5.09-1.37-7.68-1.37-2.25,0-4.57.35-6.89,1.04-1.75.52-3.1,1.27-4.14,2.32-.79.79-1.13,1.44-1.1,2.1.05,1.18-.52,1.83-1.27,2.54-1.26,1.19-1.92,2.62-1.93,4.12,0,1.53.66,2.99,1.94,4.22.85.84,1.89,1.53,3.17,2.1,3.39,1.54,6.96,1.89,9.35,1.93h.04c3.69,0,6.45-.36,8.94-1.17,2.5-.82,4.18-1.8,5.49-3.24,1.14-1.24,1.66-2.64,1.55-4.17-.12-1.67-.95-3.11-2.53-4.36Zm-3.72,3.41c-.05-.63.17-1.04.74-1.41.17-.12.35-.26.52-.4.17-.13.32-.27.51-.39l.52-.38.05.65c.19,2.23-.27,3.37-1.76,4.31l-.57.36v-1.33c.01-.49.03-.96,0-1.41Zm-19.27-7.01c.92-.87,2.05-1.49,3.67-2.01,2.05-.65,4.24-.97,6.5-.97.6,0,1.19.01,1.77.05,2.47.18,4.39.6,6.05,1.35.95.41,1.76.92,2.45,1.48.75.63,1.15,1.36,1.17,2.12.01.76-.38,1.54-1.14,2.23-1.46,1.31-3.26,1.88-4.83,2.28-1.68.41-3.42.61-5.65.62-3.28-.08-5.84-.61-8.06-1.71-.69-.34-1.35-.78-1.89-1.28-.7-.61-1.06-1.32-1.08-2.03-.01-.74.35-1.48,1.04-2.12Zm18.48,7.71c0,.7,0,1.4-.01,2.09,0,.22-.14.51-.38.61-1.26.53-2.51.88-3.85,1.08l-.41.06v-3.74l4.64-1.22v1.13Zm-5.5.19v3.85h-5.4v-3.85h5.4Zm-6.24-.13v3.91l-1.19-.34c-.75-.21-1.48-.4-2.19-.62-.25-.06-.47-.36-.47-.61-.01-.73-.01-1.45-.01-2.19v-.6l.08-.36h.41s.1-.01.1-.01l3.26.82Zm-7.72-2.54l.08-.54.98.58c.54.32,1.06.63,1.59.97.21.14.39.43.39.67.01.65.01,1.3.01,1.96v1.06l-.43-.08c-1.77-.32-2.95-2.4-2.63-4.62Zm24.45,6.26c-1.05,1.2-2.46,2.11-4.47,2.85-2.58.93-5.39,1.4-8.57,1.4-.62,0-1.23-.03-1.85-.05-2.88-.14-5.35-.66-7.54-1.55-1.87-.76-3.17-1.67-4.11-2.86-1.64-2.06-1.39-4.75.62-6.54l.61-.56v1.35c.01.35.01.67,0,.98-.04,1.05.34,1.94,1.13,2.76,1.11,1.13,2.53,1.89,4.58,2.49,2.02.58,4.14.88,6.31.88.97,0,1.97-.05,2.97-.17,2.67-.31,4.7-.92,6.44-1.92.52-.3,1.01-.66,1.48-1.07.97-.87,1.41-1.88,1.35-3.07-.01-.3-.01-.58-.01-.89v-1.28s.74.62.74.62c.1.06.17.13.23.19,1.79,1.97,1.83,4.43.1,6.45Z"/>
        <path class="cls-1" d="m45.36,36.53c-.32-.26-.63-.61-.6-1.24.08-1.02-.3-1.93-1.13-2.8-.84-.87-1.9-1.53-3.23-2.01-2.5-.91-5.09-1.37-7.68-1.37-2.25,0-4.57.35-6.89,1.04-1.75.52-3.1,1.27-4.14,2.32-.79.79-1.13,1.44-1.1,2.1.05,1.18-.52,1.83-1.27,2.54-1.26,1.19-1.92,2.62-1.93,4.12,0,1.53.66,2.99,1.94,4.22.85.84,1.89,1.53,3.17,2.1,3.39,1.54,6.96,1.89,9.35,1.93h.04c3.69,0,6.45-.36,8.94-1.17,2.5-.82,4.18-1.8,5.49-3.24,1.14-1.24,1.66-2.64,1.55-4.17-.12-1.67-.95-3.11-2.53-4.36Zm-3.72,3.41c-.05-.63.17-1.04.74-1.41.17-.12.35-.26.52-.4.17-.13.32-.27.51-.39l.52-.38.05.65c.19,2.23-.27,3.37-1.76,4.31l-.57.36v-1.33c.01-.49.03-.96,0-1.41Zm-19.27-7.01c.92-.87,2.05-1.49,3.67-2.01,2.05-.65,4.24-.97,6.5-.97.6,0,1.19.01,1.77.05,2.47.18,4.39.6,6.05,1.35.95.41,1.76.92,2.45,1.48.75.63,1.15,1.36,1.17,2.12.01.76-.38,1.54-1.14,2.23-1.46,1.31-3.26,1.88-4.83,2.28-1.68.41-3.42.61-5.65.62-3.28-.08-5.84-.61-8.06-1.71-.69-.34-1.35-.78-1.89-1.28-.7-.61-1.06-1.32-1.08-2.03-.01-.74.35-1.48,1.04-2.12Zm18.48,7.71c0,.7,0,1.4-.01,2.09,0,.22-.14.51-.38.61-1.26.53-2.51.88-3.85,1.08l-.41.06v-3.74l4.64-1.22v1.13Zm-5.5.19v3.85h-5.4v-3.85h5.4Zm-6.24-.13v3.91l-1.19-.34c-.75-.21-1.48-.4-2.19-.62-.25-.06-.47-.36-.47-.61-.01-.73-.01-1.45-.01-2.19v-.6l.08-.36h.41s.1-.01.1-.01l3.26.82Zm-7.72-2.54l.08-.54.98.58c.54.32,1.06.63,1.59.97.21.14.39.43.39.67.01.65.01,1.3.01,1.96v1.06l-.43-.08c-1.77-.32-2.95-2.4-2.63-4.62Zm24.45,6.26c-1.05,1.2-2.46,2.11-4.47,2.85-2.58.93-5.39,1.4-8.57,1.4-.62,0-1.23-.03-1.85-.05-2.88-.14-5.35-.66-7.54-1.55-1.87-.76-3.17-1.67-4.11-2.86-1.64-2.06-1.39-4.75.62-6.54l.61-.56v1.35c.01.35.01.67,0,.98-.04,1.05.34,1.94,1.13,2.76,1.11,1.13,2.53,1.89,4.58,2.49,2.02.58,4.14.88,6.31.88.97,0,1.97-.05,2.97-.17,2.67-.31,4.7-.92,6.44-1.92.52-.3,1.01-.66,1.48-1.07.97-.87,1.41-1.88,1.35-3.07-.01-.3-.01-.58-.01-.89v-1.28s.74.62.74.62c.1.06.17.13.23.19,1.79,1.97,1.83,4.43.1,6.45Z"/>
      </g>
      <g>
        <path class="cls-1" d="m33.07,16.1c-.12-.12-.28-.26-.41-.26-.1,0-.25.09-.4.25-1.67,1.72-2.53,3.81-2.56,6.2,0,1.39.32,2.73.96,4.02.14.26.27.39.4.39.08,0,.21-.04.41-.19.4-.31.8-.47,1.19-.47s.79.16,1.18.45c.22.17.36.21.44.21.12,0,.25-.13.38-.38,1.74-3.39,1.1-7.5-1.58-10.22Zm1.11,9.2l-.17.27-.28-.12c-.36-.14-.73-.21-1.08-.21s-.71.06-1.06.21l-.3.12-.16-.27c-1.24-2.12-.61-6.22,1.26-8.09l.25-.26.27.25c1.85,1.83,2.5,5.91,1.27,8.11Z"/>
        <path class="cls-1" d="m33.07,16.1c-.12-.12-.28-.26-.41-.26-.1,0-.25.09-.4.25-1.67,1.72-2.53,3.81-2.56,6.2,0,1.39.32,2.73.96,4.02.14.26.27.39.4.39.08,0,.21-.04.41-.19.4-.31.8-.47,1.19-.47s.79.16,1.18.45c.22.17.36.21.44.21.12,0,.25-.13.38-.38,1.74-3.39,1.1-7.5-1.58-10.22Zm1.11,9.2l-.17.27-.28-.12c-.36-.14-.73-.21-1.08-.21s-.71.06-1.06.21l-.3.12-.16-.27c-1.24-2.12-.61-6.22,1.26-8.09l.25-.26.27.25c1.85,1.83,2.5,5.91,1.27,8.11Z"/>
      </g>
      <g>
        <path class="cls-1" d="m43.25,18.12c-.14-.32-.31-.32-.36-.32-.09,0-.19.03-.3.08-3.25,1.55-5.28,5.26-4.86,8.83.03.21.12.47.38.47.09,0,.21-.03.32-.09.35-.17.66-.25.96-.25.57,0,1.05.31,1.45.95.08.12.22.3.39.3.12,0,.25-.06.36-.21,1.59-1.67,2.43-3.72,2.49-6.05-.03-1.39-.3-2.6-.83-3.7Zm-1.7,8.54l-.25.27-.27-.23c-.53-.44-1.15-.67-1.85-.67-.06,0-.53.03-.53.03l-.06-.31c-.45-2.11,1.68-5.93,3.74-6.7l.31-.13.14.31c1,2.03.4,5.58-1.23,7.43Z"/>
        <path class="cls-1" d="m43.25,18.12c-.14-.32-.31-.32-.36-.32-.09,0-.19.03-.3.08-3.25,1.55-5.28,5.26-4.86,8.83.03.21.12.47.38.47.09,0,.21-.03.32-.09.35-.17.66-.25.96-.25.57,0,1.05.31,1.45.95.08.12.22.3.39.3.12,0,.25-.06.36-.21,1.59-1.67,2.43-3.72,2.49-6.05-.03-1.39-.3-2.6-.83-3.7Zm-1.7,8.54l-.25.27-.27-.23c-.53-.44-1.15-.67-1.85-.67-.06,0-.53.03-.53.03l-.06-.31c-.45-2.11,1.68-5.93,3.74-6.7l.31-.13.14.31c1,2.03.4,5.58-1.23,7.43Z"/>
      </g>
      <g>
        <path class="cls-1" d="m22.81,17.93c-.21-.1-.35-.13-.43-.13-.06,0-.22,0-.34.36l-.12.38c-.27.87-.56,1.76-.63,2.64-.22,2.53.61,4.81,2.47,6.76.06.06.17.16.3.16s.26-.1.38-.26c.3-.47.75-1,1.46-1,.3,0,.61.09,1,.27.1.04.19.06.28.06.28,0,.36-.26.38-.41.03-.22.04-.44.04-.66v-.31c.01-3.32-1.83-6.33-4.79-7.86Zm3.94,7.77l-.03.35-.53-.03c-.76,0-1.39.22-1.92.69l-.27.25-.25-.28c-1.67-1.99-2.21-5.26-1.23-7.45l.16-.32.32.14c2.05.82,4.02,4.3,3.74,6.66Z"/>
        <path class="cls-1" d="m22.81,17.93c-.21-.1-.35-.13-.43-.13-.06,0-.22,0-.34.36l-.12.38c-.27.87-.56,1.76-.63,2.64-.22,2.53.61,4.81,2.47,6.76.06.06.17.16.3.16s.26-.1.38-.26c.3-.47.75-1,1.46-1,.3,0,.61.09,1,.27.1.04.19.06.28.06.28,0,.36-.26.38-.41.03-.22.04-.44.04-.66v-.31c.01-3.32-1.83-6.33-4.79-7.86Zm3.94,7.77l-.03.35-.53-.03c-.76,0-1.39.22-1.92.69l-.27.25-.25-.28c-1.67-1.99-2.21-5.26-1.23-7.45l.16-.32.32.14c2.05.82,4.02,4.3,3.74,6.66Z"/>
      </g>
      <g>
        <path class="cls-1" d="m51.68,23.49c-.06-.06-.19-.1-.4-.1h-.16c-.22.03-.43.05-.63.08h-.18c-2.95.34-5.72,2.84-6.32,5.71-.01.12-.03.27.05.39.09.12.25.17.35.18,1.3.17,1.87.79,1.93,2.1.01.27.17.45.39.45.09,0,.18-.03.27-.08,3.02-1.76,4.64-4.43,4.83-7.9v-.3c0-.27-.05-.45-.13-.53Zm-.7,1.22c-.22,2.55-1.33,4.57-3.43,6.19l-.36.28-.19-.43c-.38-.83-.93-1.39-1.71-1.67l-.28-.12.05-.3c.43-2.09,3.3-4.36,5.5-4.36h.45s-.03.4-.03.4Z"/>
        <path class="cls-1" d="m51.68,23.49c-.06-.06-.19-.1-.4-.1h-.16c-.22.03-.43.05-.63.08h-.18c-2.95.34-5.72,2.84-6.32,5.71-.01.12-.03.27.05.39.09.12.25.17.35.18,1.3.17,1.87.79,1.93,2.1.01.27.17.45.39.45.09,0,.18-.03.27-.08,3.02-1.76,4.64-4.43,4.83-7.9v-.3c0-.27-.05-.45-.13-.53Zm-.7,1.22c-.22,2.55-1.33,4.57-3.43,6.19l-.36.28-.19-.43c-.38-.83-.93-1.39-1.71-1.67l-.28-.12.05-.3c.43-2.09,3.3-4.36,5.5-4.36h.45s-.03.4-.03.4Z"/>
      </g>
      <g>
        <path class="cls-1" d="m21.29,29.08c-.84-3.26-3.65-5.5-7.25-5.7-.19,0-.34.04-.41.1-.09.1-.1.31-.1.45.03,3.59,1.62,6.35,4.74,8.2.06.04.21.09.36.09.09,0,.14-.03.14-.03.06-.04.21-.27.22-.51.08-1.1.78-1.85,1.83-1.96.17-.01.39-.06.47-.18.09-.12.05-.32.01-.48Zm-1.24,0c-.79.3-1.36.84-1.71,1.67l-.19.43-.38-.28c-2.06-1.58-3.19-3.59-3.43-6.13l-.03-.32.31-.08c.14-.03.3-.05.47-.05,1.9,0,4.68,2.31,5.18,4.33l.09.32-.31.12Z"/>
        <path class="cls-1" d="m21.29,29.08c-.84-3.26-3.65-5.5-7.25-5.7-.19,0-.34.04-.41.1-.09.1-.1.31-.1.45.03,3.59,1.62,6.35,4.74,8.2.06.04.21.09.36.09.09,0,.14-.03.14-.03.06-.04.21-.27.22-.51.08-1.1.78-1.85,1.83-1.96.17-.01.39-.06.47-.18.09-.12.05-.32.01-.48Zm-1.24,0c-.79.3-1.36.84-1.71,1.67l-.19.43-.38-.28c-2.06-1.58-3.19-3.59-3.43-6.13l-.03-.32.31-.08c.14-.03.3-.05.47-.05,1.9,0,4.68,2.31,5.18,4.33l.09.32-.31.12Z"/>
      </g>
    </g>
    <rect class="cls-2" x=".5" y=".5" width="64.31" height="64.31" rx="4.61" ry="4.61"/>
  </g>
</svg>