<?xml version="1.0" encoding="UTF-8"?>
<svg id="Layer_2" data-name="Layer 2" xmlns="http://www.w3.org/2000/svg" viewBox="0 0 65.31 65.31">
  <defs>
    <style>
      .cls-1 {
        fill: #163b23;
        stroke-width: 0px;
      }

      .cls-2 {
        fill: none;
        stroke: #163b23;
        stroke-miterlimit: 10;
      }
    </style>
  </defs>
  <g id="Layer_1-2" data-name="Layer 1">
    <g>
      <g>
        <path class="cls-1" d="m46.67,29.68l-.06-.04-1.3-1.36c-.65-.69-1.85-1.27-3.61-1.72-2.43-.65-5.65-1-9.07-1s-6.63.35-9.07,1c-1.7.44-2.89,1-3.55,1.66l-1.37,1.45-.06.03c-2.51,1.09-3.85,2.42-3.85,3.87,0,1.71,1.9,3.3,5.36,4.46,3.37,1.13,7.82,1.75,12.55,1.75s9.2-.62,12.56-1.75c3.45-1.15,5.35-2.75,5.35-4.46,0-1.45-1.33-2.8-3.89-3.89Zm-25.96-.44l.19-.21c.31-.28,1.13-.84,3.17-1.36,2.31-.58,5.35-.91,8.55-.91s6.24.32,8.55.91c2.27.57,3.03,1.19,3.25,1.44l.22.25-.04.03.03.12-.03.08c-.1.43-1.06,1.14-3.43,1.74-2.31.58-5.34.91-8.55.91s-6.24-.32-8.55-.91c-2.56-.65-3.37-1.4-3.45-1.87l.08-.21Zm-2.8,2.94l1.74-1.83.23.27c.63.73,1.87,1.33,3.68,1.81,2.43.63,5.65,1,9.07,1s6.63-.36,9.07-1c1.81-.48,3.06-1.09,3.68-1.81l.23-.27,1.75,1.84c.27.32.27.82-.01,1.13-1.52,1.67-7.05,3.37-14.71,3.37s-13.3-1.72-14.75-3.41c-.25-.3-.25-.76.04-1.1Zm14.73,6.99c-10.36,0-17.33-2.9-17.33-5.61,0-.48.22-.97.63-1.45l.79-.92-.22,1.19c-.1.61.05,1.22.44,1.67,1.97,2.29,8.26,3.83,15.67,3.83s13.59-1.5,15.61-3.76c.44-.49.62-1.15.49-1.8l-.23-1.18.8.89c.45.51.67,1.01.67,1.52,0,2.71-6.96,5.61-17.33,5.61Z"/>
        <path class="cls-1" d="m46.67,29.68l-.06-.04-1.3-1.36c-.65-.69-1.85-1.27-3.61-1.72-2.43-.65-5.65-1-9.07-1s-6.63.35-9.07,1c-1.7.44-2.89,1-3.55,1.66l-1.37,1.45-.06.03c-2.51,1.09-3.85,2.42-3.85,3.87,0,1.71,1.9,3.3,5.36,4.46,3.37,1.13,7.82,1.75,12.55,1.75s9.2-.62,12.56-1.75c3.45-1.15,5.35-2.75,5.35-4.46,0-1.45-1.33-2.8-3.89-3.89Zm-25.96-.44l.19-.21c.31-.28,1.13-.84,3.17-1.36,2.31-.58,5.35-.91,8.55-.91s6.24.32,8.55.91c2.27.57,3.03,1.19,3.25,1.44l.22.25-.04.03.03.12-.03.08c-.1.43-1.06,1.14-3.43,1.74-2.31.58-5.34.91-8.55.91s-6.24-.32-8.55-.91c-2.56-.65-3.37-1.4-3.45-1.87l.08-.21Zm-2.8,2.94l1.74-1.83.23.27c.63.73,1.87,1.33,3.68,1.81,2.43.63,5.65,1,9.07,1s6.63-.36,9.07-1c1.81-.48,3.06-1.09,3.68-1.81l.23-.27,1.75,1.84c.27.32.27.82-.01,1.13-1.52,1.67-7.05,3.37-14.71,3.37s-13.3-1.72-14.75-3.41c-.25-.3-.25-.76.04-1.1Zm14.73,6.99c-10.36,0-17.33-2.9-17.33-5.61,0-.48.22-.97.63-1.45l.79-.92-.22,1.19c-.1.61.05,1.22.44,1.67,1.97,2.29,8.26,3.83,15.67,3.83s13.59-1.5,15.61-3.76c.44-.49.62-1.15.49-1.8l-.23-1.18.8.89c.45.51.67,1.01.67,1.52,0,2.71-6.96,5.61-17.33,5.61Z"/>
      </g>
      <g>
        <path class="cls-1" d="m36.6,28.98c-.48.19-1.83.44-3.96.44s-3.48-.25-3.95-.44c.47-.19,1.81-.45,3.95-.45s3.48.26,3.96.45Z"/>
        <path class="cls-1" d="m36.6,28.98c-.48.19-1.83.44-3.96.44s-3.48-.25-3.95-.44c.47-.19,1.81-.45,3.95-.45s3.48.26,3.96.45Z"/>
      </g>
    </g>
    <rect class="cls-2" x=".5" y=".5" width="64.31" height="64.31" rx="4.61" ry="4.61"/>
  </g>
</svg>