<?xml version="1.0" encoding="UTF-8"?>
<svg id="Layer_2" data-name="Layer 2" xmlns="http://www.w3.org/2000/svg" viewBox="0 0 65.31 65.31">
  <defs>
    <style>
      .cls-1 {
        fill: #163b23;
        stroke-width: 0px;
      }

      .cls-2 {
        fill: none;
        stroke: #163b23;
        stroke-miterlimit: 10;
      }
    </style>
  </defs>
  <g id="Layer_1-2" data-name="Layer 1">
    <g>
      <g>
        <g>
          <path class="cls-1" d="m20.29,43.88l-.51.36-.45.43c-2.82-3.21-4.33-6.81-4.58-11.03l1.31.09c.18,3.78,1.63,7.23,4.24,10.15Z"/>
          <path class="cls-1" d="m20.29,43.88l-.51.36-.45.43c-2.82-3.21-4.33-6.81-4.58-11.03l1.31.09c.18,3.78,1.63,7.23,4.24,10.15Z"/>
        </g>
        <g>
          <path class="cls-1" d="m20.12,21.73c-.14.05-.26.19-.36.32-2.25,2.77-3.51,5.97-3.77,9.49v.08h-1.32c.35-4.12,1.8-7.68,4.53-10.84l.92.95Z"/>
          <path class="cls-1" d="m20.12,21.73c-.14.05-.26.19-.36.32-2.25,2.77-3.51,5.97-3.77,9.49v.08h-1.32c.35-4.12,1.8-7.68,4.53-10.84l.92.95Z"/>
        </g>
        <g>
          <path class="cls-1" d="m31.69,18.08l-.09,1.31c-1.42.06-2.82.4-4.11.93-1.31.56-2.5,1.3-3.64,2.28l-.89-.97c2.5-2.09,5.35-3.28,8.73-3.55Z"/>
          <path class="cls-1" d="m31.69,18.08l-.09,1.31c-1.42.06-2.82.4-4.11.93-1.31.56-2.5,1.3-3.64,2.28l-.89-.97c2.5-2.09,5.35-3.28,8.73-3.55Z"/>
        </g>
        <g>
          <path class="cls-1" d="m42.39,21.73l-.47.4-.44.45c-1.14-.97-2.33-1.71-3.65-2.27-1.27-.53-2.68-.87-4.17-1l.08-1.31c3.23.31,6.09,1.5,8.65,3.72Z"/>
          <path class="cls-1" d="m42.39,21.73l-.47.4-.44.45c-1.14-.97-2.33-1.71-3.65-2.27-1.27-.53-2.68-.87-4.17-1l.08-1.31c3.23.31,6.09,1.5,8.65,3.72Z"/>
        </g>
        <g>
          <path class="cls-1" d="m47.31,33.72c-.3,3.21-1.48,6.05-3.67,8.59l-.97-.89c1-1.05,1.75-2.24,2.31-3.55.56-1.31.89-2.68,1.02-4.22l1.31.08Z"/>
          <path class="cls-1" d="m47.31,33.72c-.3,3.21-1.48,6.05-3.67,8.59l-.97-.89c1-1.05,1.75-2.24,2.31-3.55.56-1.31.89-2.68,1.02-4.22l1.31.08Z"/>
        </g>
        <g>
          <path class="cls-1" d="m22.65,41.52h-.1l-.85.79c-2.18-2.53-3.35-5.38-3.6-8.69l.61.09h.7c.19,2.97,1.28,5.54,3.25,7.81Z"/>
          <path class="cls-1" d="m22.65,41.52h-.1l-.85.79c-2.18-2.53-3.35-5.38-3.6-8.69l.61.09h.7c.19,2.97,1.28,5.54,3.25,7.81Z"/>
        </g>
        <g>
          <path class="cls-1" d="m22.48,24.09c-1.84,2.1-2.9,4.66-3.15,7.5h-1.31c.31-3.15,1.44-5.94,3.54-8.43l.18.27.74.66Z"/>
          <path class="cls-1" d="m22.48,24.09c-1.84,2.1-2.9,4.66-3.15,7.5h-1.31c.31-3.15,1.44-5.94,3.54-8.43l.18.27.74.66Z"/>
        </g>
        <g>
          <path class="cls-1" d="m31.66,45.99l-.06,1.23c-3.19-.26-5.96-1.39-8.43-3.46l.36-.28.57-.63c2.11,1.85,4.7,2.91,7.56,3.15Z"/>
          <path class="cls-1" d="m31.66,45.99l-.06,1.23c-3.19-.26-5.96-1.39-8.43-3.46l.36-.28.57-.63c2.11,1.85,4.7,2.91,7.56,3.15Z"/>
        </g>
        <g>
          <path class="cls-1" d="m47.23,31.57l-.04.03h-1.17c-.28-2.84-1.32-5.36-3.11-7.54l.43-.41.45-.41c2.06,2.43,3.17,5.17,3.43,8.34Z"/>
          <path class="cls-1" d="m47.23,31.57l-.04.03h-1.17c-.28-2.84-1.32-5.36-3.11-7.54l.43-.41.45-.41c2.06,2.43,3.17,5.17,3.43,8.34Z"/>
        </g>
        <g>
          <path class="cls-1" d="m43.97,33.76c-.28,2.27-1.14,4.31-2.68,6.18l-.98-.88c1.66-2.33,1.75-2.54,2.37-5.48l.7.13.6.05Z"/>
          <path class="cls-1" d="m43.97,33.76c-.28,2.27-1.14,4.31-2.68,6.18l-.98-.88c1.66-2.33,1.75-2.54,2.37-5.48l.7.13.6.05Z"/>
        </g>
        <g>
          <path class="cls-1" d="m31.65,22.59c-2.09.32-3.82,1.06-5.39,2.33l-.04.03s-.04-.01-.06-.04l-.73-.8c1.79-1.57,3.77-2.41,6.06-2.67l.16,1.15Z"/>
          <path class="cls-1" d="m31.65,22.59c-2.09.32-3.82,1.06-5.39,2.33l-.04.03s-.04-.01-.06-.04l-.73-.8c1.79-1.57,3.77-2.41,6.06-2.67l.16,1.15Z"/>
        </g>
        <g>
          <path class="cls-1" d="m39.96,24.05l-.3.31-.54.61c-1.61-1.32-3.39-2.07-5.47-2.31l.09-1.26c2.33.26,4.36,1.11,6.22,2.64Z"/>
          <path class="cls-1" d="m39.96,24.05l-.3.31-.54.61c-1.61-1.32-3.39-2.07-5.47-2.31l.09-1.26c2.33.26,4.36,1.11,6.22,2.64Z"/>
        </g>
        <g>
          <path class="cls-1" d="m24.99,39.14l-.43.34-.52.47c-1.48-1.79-2.36-3.91-2.6-6.31l.22.04h1.02c.18,2.05.96,3.85,2.31,5.47Z"/>
          <path class="cls-1" d="m24.99,39.14l-.43.34-.52.47c-1.48-1.79-2.36-3.91-2.6-6.31l.22.04h1.02c.18,2.05.96,3.85,2.31,5.47Z"/>
        </g>
        <g>
          <path class="cls-1" d="m39.78,41.51c-1.79,1.35-3.77,2.15-6.04,2.37l-.08-1.3c1.94-.13,3.76-.88,5.31-2.12v.1s.8.95.8.95Z"/>
          <path class="cls-1" d="m39.78,41.51c-1.79,1.35-3.77,2.15-6.04,2.37l-.08-1.3c1.94-.13,3.76-.88,5.31-2.12v.1s.8.95.8.95Z"/>
        </g>
        <g>
          <path class="cls-1" d="m24.86,26.45c-1.27,1.48-1.98,3.19-2.19,5.14h-1.31c.27-2.23,1.09-4.24,2.55-6.05l.27.34.67.57Z"/>
          <path class="cls-1" d="m24.86,26.45c-1.27,1.48-1.98,3.19-2.19,5.14h-1.31c.27-2.23,1.09-4.24,2.55-6.05l.27.34.67.57Z"/>
        </g>
        <g>
          <path class="cls-1" d="m43.89,31.57l-1.23.08c-.22-1.97-.93-3.73-2.12-5.23l.91-.8c1.17,1.14,2.42,4.27,2.45,5.96Z"/>
          <path class="cls-1" d="m43.89,31.57l-1.23.08c-.22-1.97-.93-3.73-2.12-5.23l.91-.8c1.17,1.14,2.42,4.27,2.45,5.96Z"/>
        </g>
        <g>
          <path class="cls-1" d="m31.73,42.66l-.14,1.22c-2.25-.21-4.24-1.02-6.05-2.47l.23-.16.69-.79c1.49,1.27,3.25,1.99,5.27,2.2Z"/>
          <path class="cls-1" d="m31.73,42.66l-.14,1.22c-2.25-.21-4.24-1.02-6.05-2.47l.23-.16.69-.79c1.49,1.27,3.25,1.99,5.27,2.2Z"/>
        </g>
        <g>
          <path class="cls-1" d="m27.31,36.7l-.84.82h-.04s-.04.01-.05,0c-.74-.88-1.35-2.37-1.57-3.81.43-.06.79-.08,1.17-.09.25,1.19.66,2.19,1.33,3.08Z"/>
          <path class="cls-1" d="m27.31,36.7l-.84.82h-.04s-.04.01-.05,0c-.74-.88-1.35-2.37-1.57-3.81.43-.06.79-.08,1.17-.09.25,1.19.66,2.19,1.33,3.08Z"/>
        </g>
        <g>
          <path class="cls-1" d="m37.61,26.43l-.34.32-.51.58c-.95-.71-1.97-1.14-3.15-1.32l.06-.32.09-.92c1.23.14,2.82.82,3.83,1.66Z"/>
          <path class="cls-1" d="m37.61,26.43l-.34.32-.51.58c-.95-.71-1.97-1.14-3.15-1.32l.06-.32.09-.92c1.23.14,2.82.82,3.83,1.66Z"/>
        </g>
        <g>
          <path class="cls-1" d="m40.55,33.76c-.17,1.3-.8,2.8-1.63,3.79l-.95-.82c.73-.93,1.15-1.97,1.33-3.12l1.24.14Z"/>
          <path class="cls-1" d="m40.55,33.76c-.17,1.3-.8,2.8-1.63,3.79l-.95-.82c.73-.93,1.15-1.97,1.33-3.12l1.24.14Z"/>
        </g>
        <g>
          <path class="cls-1" d="m31.68,25.98c-1.18.23-2.16.66-3.07,1.33h-.03s-.03.01-.04-.01l-.75-.85c1.11-.93,2.33-1.45,3.72-1.64l.17,1.18Z"/>
          <path class="cls-1" d="m31.68,25.98c-1.18.23-2.16.66-3.07,1.33h-.03s-.03.01-.04-.01l-.75-.85c1.11-.93,2.33-1.45,3.72-1.64l.17,1.18Z"/>
        </g>
        <g>
          <path class="cls-1" d="m27.18,28.74c-.63.96-1,1.84-1.15,2.84l-.03.03-1.17-.03c.16-1.33.63-2.53,1.39-3.56l.6.44.36.28Z"/>
          <path class="cls-1" d="m27.18,28.74c-.63.96-1,1.84-1.15,2.84l-.03.03-1.17-.03c.16-1.33.63-2.53,1.39-3.56l.6.44.36.28Z"/>
        </g>
        <g>
          <path class="cls-1" d="m40.52,31.52l-.75.1-.44.04s-.03-.01-.04-.03c-.17-1.05-.54-1.97-1.14-2.84l.89-.78c.84,1.06,1.3,2.2,1.48,3.5Z"/>
          <path class="cls-1" d="m40.52,31.52l-.75.1-.44.04s-.03-.01-.04-.03c-.17-1.05-.54-1.97-1.14-2.84l.89-.78c.84,1.06,1.3,2.2,1.48,3.5Z"/>
        </g>
        <g>
          <path class="cls-1" d="m37.31,39.05c-1.06.82-2.2,1.28-3.51,1.46-.01,0-.04-.01-.04-.03l-.1-1.17c1.09-.21,2.02-.58,2.88-1.19l.78.92Z"/>
          <path class="cls-1" d="m37.31,39.05c-1.06.82-2.2,1.28-3.51,1.46-.01,0-.04-.01-.04-.03l-.1-1.17c1.09-.21,2.02-.58,2.88-1.19l.78.92Z"/>
        </g>
        <g>
          <path class="cls-1" d="m31.7,39.29l-.1.82-.04.41c-1.31-.18-2.49-.66-3.57-1.45l.36-.43.44-.54c.87.63,1.84,1.02,2.91,1.19Z"/>
          <path class="cls-1" d="m31.7,39.29l-.1.82-.04.41c-1.31-.18-2.49-.66-3.57-1.45l.36-.43.44-.54c.87.63,1.84,1.02,2.91,1.19Z"/>
        </g>
      </g>
      <g>
        <path class="cls-1" d="m44.72,19.35l-.16.12-.73.76c-.26-.21-.45-.39-.67-.56-2.77-2.23-5.94-3.46-9.44-3.68v-1.28c4.14.31,7.85,1.87,11,4.64Z"/>
        <path class="cls-1" d="m44.72,19.35l-.16.12-.73.76c-.26-.21-.45-.39-.67-.56-2.77-2.23-5.94-3.46-9.44-3.68v-1.28c4.14.31,7.85,1.87,11,4.64Z"/>
      </g>
      <g>
        <path class="cls-1" d="m31.73,14.72l-.08.23v1.1c-2.02.04-3.96.53-5.83,1.36-1.54.69-2.97,1.61-4.24,2.75l-.09.08-.91-.97c3.19-2.73,6.83-4.25,11.14-4.55Z"/>
        <path class="cls-1" d="m31.73,14.72l-.08.23v1.1c-2.02.04-3.96.53-5.83,1.36-1.54.69-2.97,1.61-4.24,2.75l-.09.08-.91-.97c3.19-2.73,6.83-4.25,11.14-4.55Z"/>
      </g>
      <g>
        <path class="cls-1" d="m44.52,46.22c-3.12,2.6-6.67,4.05-10.84,4.35v-1.32c2.58-.09,4.95-.79,7.06-1.99.76-.44,1.46-.93,2.21-1.45l.78-.54.6.74.19.22Z"/>
        <path class="cls-1" d="m44.52,46.22c-3.12,2.6-6.67,4.05-10.84,4.35v-1.32c2.58-.09,4.95-.79,7.06-1.99.76-.44,1.46-.93,2.21-1.45l.78-.54.6.74.19.22Z"/>
      </g>
      <g>
        <path class="cls-1" d="m31.65,49.32v1.26c-4.2-.31-7.75-1.76-10.85-4.46l.17-.08.78-.84c.16.22.34.38.52.52,2.73,2.15,5.85,3.35,9.27,3.59h.12Z"/>
        <path class="cls-1" d="m31.65,49.32v1.26c-4.2-.31-7.75-1.76-10.85-4.46l.17-.08.78-.84c.16.22.34.38.52.52,2.73,2.15,5.85,3.35,9.27,3.59h.12Z"/>
      </g>
      <g>
        <path class="cls-1" d="m42.17,43.87c-.8.6-1.68,1.19-2.66,1.7-1.81.96-3.74,1.52-5.75,1.66h-.04v-1.3c2.81-.17,5.39-1.23,7.62-3.08l.53.7.3.32Z"/>
        <path class="cls-1" d="m42.17,43.87c-.8.6-1.68,1.19-2.66,1.7-1.81.96-3.74,1.52-5.75,1.66h-.04v-1.3c2.81-.17,5.39-1.23,7.62-3.08l.53.7.3.32Z"/>
      </g>
      <path class="cls-1" d="m45.04,43.77c.25-.18.42-.39.6-.6,2.2-2.73,3.44-5.87,3.68-9.31v-.18c.27.05.49.05.72.05h.63c-.36,4.16-1.86,7.77-4.67,10.94l-.95-.9Z"/>
      <g>
        <path class="cls-1" d="m49.25,31.63l.08-.18c-.19-2.59-.92-4.95-2.16-7.05-.41-.71-.88-1.37-1.37-2.06l-.52-.75.96-.79c2.6,3.12,4.05,6.67,4.35,10.83h-1.33Z"/>
        <path class="cls-1" d="m49.25,31.63l.08-.18c-.19-2.59-.92-4.95-2.16-7.05-.41-.71-.88-1.37-1.37-2.06l-.52-.75.96-.79c2.6,3.12,4.05,6.67,4.35,10.83h-1.33Z"/>
      </g>
    </g>
    <rect class="cls-2" x=".5" y=".5" width="64.31" height="64.31" rx="4.61" ry="4.61"/>
  </g>
</svg>