<?xml version="1.0" encoding="UTF-8"?>
<svg id="Layer_2" data-name="Layer 2" xmlns="http://www.w3.org/2000/svg" viewBox="0 0 65.31 65.31">
  <defs>
    <style>
      .cls-1 {
        fill: #163b23;
        stroke-width: 0px;
      }

      .cls-2 {
        fill: none;
        stroke: #163b23;
        stroke-miterlimit: 10;
      }
    </style>
  </defs>
  <g id="Layer_1-2" data-name="Layer 1">
    <g>
      <g>
        <path class="cls-1" d="m32.66,15.01c-9.75.01-17.68,7.97-17.67,17.69.03,9.71,7.98,17.6,17.72,17.6h.03c4.69,0,9.11-1.85,12.43-5.19,3.34-3.35,5.18-7.78,5.17-12.49-.03-9.71-7.94-17.61-17.68-17.61Zm11.66,29.28c-3.11,3.11-7.25,4.82-11.66,4.82-9.08,0-16.47-7.37-16.47-16.44s7.4-16.47,16.47-16.49h.01c9.08,0,16.47,7.4,16.47,16.47,0,4.39-1.71,8.52-4.83,11.63Z"/>
        <path class="cls-1" d="m32.66,15.01c-9.75.01-17.68,7.97-17.67,17.69.03,9.71,7.98,17.6,17.72,17.6h.03c4.69,0,9.11-1.85,12.43-5.19,3.34-3.35,5.18-7.78,5.17-12.49-.03-9.71-7.94-17.61-17.68-17.61Zm11.66,29.28c-3.11,3.11-7.25,4.82-11.66,4.82-9.08,0-16.47-7.37-16.47-16.44s7.4-16.47,16.47-16.49h.01c9.08,0,16.47,7.4,16.47,16.47,0,4.39-1.71,8.52-4.83,11.63Z"/>
      </g>
      <g>
        <path class="cls-1" d="m32.61,18.83c-3.69.01-7.18,1.46-9.78,4.08-2.62,2.63-4.05,6.1-4.04,9.78.04,7.64,6.27,13.85,13.9,13.85h.04c3.68,0,7.14-1.46,9.77-4.11,2.62-2.63,4.05-6.11,4.04-9.79-.03-7.62-6.26-13.81-13.92-13.81Zm-.03,26.53c-6.96-.03-12.62-5.72-12.6-12.71.01-6.97,5.71-12.64,12.72-12.64h.05c6.97.03,12.62,5.71,12.6,12.68-.03,6.98-5.72,12.67-12.77,12.67Z"/>
        <path class="cls-1" d="m32.61,18.83c-3.69.01-7.18,1.46-9.78,4.08-2.62,2.63-4.05,6.1-4.04,9.78.04,7.64,6.27,13.85,13.9,13.85h.04c3.68,0,7.14-1.46,9.77-4.11,2.62-2.63,4.05-6.11,4.04-9.79-.03-7.62-6.26-13.81-13.92-13.81Zm-.03,26.53c-6.96-.03-12.62-5.72-12.6-12.71.01-6.97,5.71-12.64,12.72-12.64h.05c6.97.03,12.62,5.71,12.6,12.68-.03,6.98-5.72,12.67-12.77,12.67Z"/>
      </g>
      <g>
        <path class="cls-1" d="m42.5,30.51c-.98-4.48-5-7.81-9.56-7.91h-.23c-4.58,0-8.6,3.06-9.77,7.45-.16.56-.17.93-.05,1.09.13.17.48.25,1.05.25h17.06c.28,0,.56,0,.83-.01.19-.01.45-.05.6-.23.13-.18.12-.43.08-.62Zm-18.24-.36l.1-.45c.8-3.26,4.56-5.92,8.38-5.92.17,0,.32,0,.49.01,3.52.22,7.33,3.16,7.68,5.94l.05.41h-16.71Z"/>
        <path class="cls-1" d="m42.5,30.51c-.98-4.48-5-7.81-9.56-7.91h-.23c-4.58,0-8.6,3.06-9.77,7.45-.16.56-.17.93-.05,1.09.13.17.48.25,1.05.25h17.06c.28,0,.56,0,.83-.01.19-.01.45-.05.6-.23.13-.18.12-.43.08-.62Zm-18.24-.36l.1-.45c.8-3.26,4.56-5.92,8.38-5.92.17,0,.32,0,.49.01,3.52.22,7.33,3.16,7.68,5.94l.05.41h-16.71Z"/>
      </g>
      <g>
        <path class="cls-1" d="m42.41,34.19c-.14-.18-.47-.22-.73-.22h-18.11c-.22,0-.52.04-.66.22-.14.18-.12.49-.06.73,1.08,4.53,5.17,7.82,9.77,7.82h.06c4.69-.04,8.72-3.25,9.78-7.81.05-.25.09-.56-.05-.74Zm-1.49,1.42c-.45,2.97-4.22,5.74-8.04,5.93-.12,0-.35.01-.35.01-3.56,0-7.37-2.76-8.16-5.91l-.12-.45h16.75l-.08.41Z"/>
        <path class="cls-1" d="m42.41,34.19c-.14-.18-.47-.22-.73-.22h-18.11c-.22,0-.52.04-.66.22-.14.18-.12.49-.06.73,1.08,4.53,5.17,7.82,9.77,7.82h.06c4.69-.04,8.72-3.25,9.78-7.81.05-.25.09-.56-.05-.74Zm-1.49,1.42c-.45,2.97-4.22,5.74-8.04,5.93-.12,0-.35.01-.35.01-3.56,0-7.37-2.76-8.16-5.91l-.12-.45h16.75l-.08.41Z"/>
      </g>
      <g>
        <path class="cls-1" d="m37.02,27.92c-.01.39-.18.56-.56.58h-.04c-.28,0-.56-.27-.57-.57,0-.14.06-.3.18-.41.12-.12.27-.19.41-.19.16,0,.3.06.4.18.12.12.17.27.17.41Z"/>
        <path class="cls-1" d="m37.02,27.92c-.01.39-.18.56-.56.58h-.04c-.28,0-.56-.27-.57-.57,0-.14.06-.3.18-.41.12-.12.27-.19.41-.19.16,0,.3.06.4.18.12.12.17.27.17.41Z"/>
      </g>
      <g>
        <path class="cls-1" d="m29.47,27.94c-.01.31-.28.57-.6.57h-.03c-.16,0-.3-.06-.4-.17-.1-.12-.16-.27-.14-.44.01-.31.27-.57.57-.57.14,0,.28.06.4.19.12.12.19.27.19.41Z"/>
        <path class="cls-1" d="m29.47,27.94c-.01.31-.28.57-.6.57h-.03c-.16,0-.3-.06-.4-.17-.1-.12-.16-.27-.14-.44.01-.31.27-.57.57-.57.14,0,.28.06.4.19.12.12.19.27.19.41Z"/>
      </g>
      <g>
        <path class="cls-1" d="m33.25,27.92c0,.14-.05.3-.17.4-.12.12-.26.18-.4.18h-.01c-.38-.01-.56-.19-.6-.57-.01-.13.04-.27.14-.39.12-.13.28-.21.43-.22h.01c.3,0,.6.3.6.6Z"/>
        <path class="cls-1" d="m33.25,27.92c0,.14-.05.3-.17.4-.12.12-.26.18-.4.18h-.01c-.38-.01-.56-.19-.6-.57-.01-.13.04-.27.14-.39.12-.13.28-.21.43-.22h.01c.3,0,.6.3.6.6Z"/>
      </g>
      <g>
        <path class="cls-1" d="m33.25,37.4c0,.32-.26.57-.6.57-.18,0-.34-.08-.45-.19-.06-.06-.14-.19-.13-.38.04-.38.21-.54.6-.57.32,0,.58.27.58.57Z"/>
        <path class="cls-1" d="m33.25,37.4c0,.32-.26.57-.6.57-.18,0-.34-.08-.45-.19-.06-.06-.14-.19-.13-.38.04-.38.21-.54.6-.57.32,0,.58.27.58.57Z"/>
      </g>
      <g>
        <path class="cls-1" d="m29.46,37.43c-.01.3-.27.54-.58.54-.18,0-.32-.05-.43-.16-.1-.12-.16-.26-.14-.44.01-.32.25-.54.56-.54.17,0,.32.06.44.19.1.1.17.26.16.4Z"/>
        <path class="cls-1" d="m29.46,37.43c-.01.3-.27.54-.58.54-.18,0-.32-.05-.43-.16-.1-.12-.16-.26-.14-.44.01-.32.25-.54.56-.54.17,0,.32.06.44.19.1.1.17.26.16.4Z"/>
      </g>
      <g>
        <path class="cls-1" d="m37.02,37.44c-.01.32-.23.53-.57.53h-.01c-.31,0-.57-.26-.58-.56,0-.14.05-.28.17-.4.12-.12.27-.19.43-.19.17.01.31.06.41.18.1.1.17.26.16.44Z"/>
        <path class="cls-1" d="m37.02,37.44c-.01.32-.23.53-.57.53h-.01c-.31,0-.57-.26-.58-.56,0-.14.05-.28.17-.4.12-.12.27-.19.43-.19.17.01.31.06.41.18.1.1.17.26.16.44Z"/>
      </g>
    </g>
    <rect class="cls-2" x=".5" y=".5" width="64.31" height="64.31" rx="4.61" ry="4.61"/>
  </g>
</svg>