<?xml version="1.0" encoding="UTF-8"?>
<svg id="Layer_2" data-name="Layer 2" xmlns="http://www.w3.org/2000/svg" viewBox="0 0 65.31 65.31">
  <defs>
    <style>
      .cls-1 {
        fill: #163b23;
        stroke-width: 0px;
      }

      .cls-2 {
        fill: none;
        stroke: #163b23;
        stroke-miterlimit: 10;
      }
    </style>
  </defs>
  <g id="Layer_1-2" data-name="Layer 1">
    <g>
      <g>
        <path class="cls-1" d="m52.6,19.67H12.69c-1.52,0-2.53,1.01-2.53,2.51v28.42c0,1.55,1,2.55,2.54,2.55h39.89c1.59,0,2.58-.98,2.58-2.58v-28.36c0-1.54-1.01-2.54-2.56-2.54Zm1.35,28.17c0,1.02.01,2.02-.01,3.02-.01.56-.45,1-1.09,1.08-.09.01-.18.01-.28.01H13c-1.23,0-1.63-.4-1.63-1.64v-3.81h1.89c.4.01.79.01,1.18-.01h.14c.61,0,1.07.19,1.63.69,2.47,2.21,5.27,3.34,8.3,3.34,1.18,0,2.42-.17,3.69-.51.16-.05.34-.06.5-.06.18,0,.36.03.53.06,1.18.34,2.37.51,3.55.51s2.36-.17,3.52-.49c.13-.04.27-.05.43-.05.14,0,.29.01.41.05,1.26.32,2.5.49,3.67.49,3.19,0,6.1-1.23,8.68-3.65.21-.19.54-.34.83-.35.53-.01,1.08-.01,1.62-.01h2.01v1.35ZM17.03,29.79l.1.18s.41.76.56,1.02c.26.43.65.69,1.06.69s.74-.25.93-.67c.75-1.74,1.89-2.86,3.56-3.5.45-.62,1.04-.69,1.42-.69.25,0,.51.04.75.06l.32.04c4.83.48,8.69,3.86,9.82,8.59.49,2.06.39,4.14-.3,6.2-.1.32-.27.53-.74.53s-.96-.01-1.45-.01h-2.11s.12-.21.12-.21c1.17-2.1,1.4-4.13.75-6.22-.49-1.55-1.41-2.84-2.73-3.81-1.31-.96-2.84-1.46-4.44-1.46s-3.17.52-4.48,1.49c-1.01.74-1.79,1.68-2.32,2.81-.54,1.14-.78,2.36-.71,3.63.05,1.19.4,2.36,1.09,3.56l.12.22h-1.81c-.69,0-1.35-.01-2.01-.03-.23,0-.41-.35-.47-.51-1.22-3.79-.63-7.33,1.72-10.5.22-.28.47-.56.73-.84l.52-.58Zm-1.83-3.06l-.31-.09.27-.17c.27-.16.53-.3.79-.44.54-.28,1.01-.54,1.37-.91.36-.35.61-.83.89-1.37.13-.25.26-.51.41-.78l.17-.27.1.31c.57,1.75,1.61,2.82,3.26,3.37l.39.13-.39.14c-1.66.63-2.75,1.72-3.33,3.35l-.14.39-.13-.39c-.6-1.67-1.7-2.73-3.37-3.28Zm32.55,8.73c-.75-1.99-2.34-3.59-4.49-4.47-.21-.08-.35-.17-.43-.28-1-1.33-2.21-2.45-3.72-3.42l-.32-.19.38-.06c.58-.1,1.17-.16,1.74-.16s1.18.05,1.75.17c4.73.93,8.12,4.31,9.05,9.04.38,1.9.22,3.83-.47,5.74-.06.18-.3.4-.49.4-.6.03-1.19.03-1.8.03h-1.64l-.16-.13.05-.18c.01-.08.04-.14.06-.21,1.05-2.06,1.22-4.29.49-6.27Zm-3.41-2.06l.03-.16.25-.16s.31.34.43.47c.26.27.52.53.73.83,1.62,2.19,1.61,5.26-.04,7.45-.13.19-.34.4-.66.4-.12,0-.23-.01-.36-.06l-.13-.05.04-.13c.91-2.88.82-5.76-.27-8.59Zm-.65,2.06c.52,2.1.4,4.22-.31,6.28-.06.19-.31.48-.54.48-.61.01-1.2.03-1.83.03h-1.92l.12-.22c.75-1.31,1.11-2.58,1.11-3.91.01-3.23-2.03-6.1-5.09-7.18-.31-.1-.6-.35-.8-.56-.22-.22-.44-.47-.66-.7-.31-.34-.62-.67-.97-.98-.25-.23-.52-.44-.8-.66-.34-.26-.69-.53-1.04-.85l-.27-.25h.38c.28-.01.58-.03.87-.03.34-.01.69-.03,1.02-.03.31,0,.61,0,.92.04,4.75.45,8.7,3.87,9.82,8.54Zm-7.64-2.37l-.04-.1.32-.26.09.1.47.47c.35.35.71.7,1,1.09,1.57,2.12,1.62,4.96.13,7.21-.19.31-.49.66-1.01.66-.14,0-.29-.03-.44-.08l-.14-.05.04-.13c.95-3.02.8-6.02-.41-8.91Zm-6.31,8.69c-.22.32-.48.47-.89.47-.63,0-1.26-.01-1.89-.01h-3.5s-2.43.01-3.1.01c-.34,0-.57-.12-.76-.4-1.49-2.14-1.68-4.35-.57-6.57,1.11-2.24,3.02-3.43,5.49-3.48h.14c2.49,0,4.4,1.18,5.56,3.41,1.15,2.19.98,4.4-.48,6.58Zm24.19,1.75v1.7H11.4v-1.7h42.53Zm-22.37,4.9c.69-.58,1.35-1.14,2.02-1.71.06-.04.26-.19.49-.19.83-.01,1.66-.01,2.49-.01h2.91c.05.01.1.03.25.09l.25.09-.21.17c-2.1,1.61-4.43,2.42-6.96,2.42-.56,0-1.14-.04-1.72-.13l-.34-.04.82-.69Zm-6.9.84c-2.63,0-5.12-.88-6.99-2.47l-.31-.26h14.53l-.28.26c-1.8,1.57-4.33,2.47-6.94,2.47Zm15.04-.83c.71-.61,1.42-1.22,2.14-1.81.13-.12.34-.13.41-.13h5.1c.05.01.1.03.27.09l.26.09-.22.17c-2.14,1.63-4.43,2.43-6.97,2.43-.49,0-1-.04-1.5-.09l-.32-.04.83-.71Zm14.26-6.23h-1.53l.19-.66c.62-2.21.65-4.43.09-6.59-1.45-5.48-6.4-9.31-12.05-9.31-1.19,0-2.38.17-3.55.51-.12.04-.25.05-.39.05s-.28-.03-.41-.05c-1.17-.34-2.36-.52-3.54-.52s-2.45.18-3.68.54c-.12.04-.25.06-.39.06s-.28-.03-.41-.06c-1.27-.36-2.46-.54-3.64-.54-.26,0-.53.01-.87.04-.22,0-.45-.08-.66-.16-1.68-.66-2.8-1.74-3.38-3.33-.18-.49-.56-.78-1.08-.78-.62.01-.91.43-1.05.78-.61,1.58-1.71,2.68-3.28,3.29-.35.13-.76.43-.78,1.04-.01.47.23.82.79,1.1.4.22.8.44,1.22.66l.83.47-.14.14c-1.85,1.72-3.06,3.7-3.67,6.06-.6,2.33-.52,4.71.23,7.08l.06.19h-1.54v-19.69c0-1.27.39-1.66,1.67-1.66h39.33c1.18,0,1.59.41,1.59,1.58v19.75Z"/>
        <path class="cls-1" d="m52.6,19.67H12.69c-1.52,0-2.53,1.01-2.53,2.51v28.42c0,1.55,1,2.55,2.54,2.55h39.89c1.59,0,2.58-.98,2.58-2.58v-28.36c0-1.54-1.01-2.54-2.56-2.54Zm1.35,28.17c0,1.02.01,2.02-.01,3.02-.01.56-.45,1-1.09,1.08-.09.01-.18.01-.28.01H13c-1.23,0-1.63-.4-1.63-1.64v-3.81h1.89c.4.01.79.01,1.18-.01h.14c.61,0,1.07.19,1.63.69,2.47,2.21,5.27,3.34,8.3,3.34,1.18,0,2.42-.17,3.69-.51.16-.05.34-.06.5-.06.18,0,.36.03.53.06,1.18.34,2.37.51,3.55.51s2.36-.17,3.52-.49c.13-.04.27-.05.43-.05.14,0,.29.01.41.05,1.26.32,2.5.49,3.67.49,3.19,0,6.1-1.23,8.68-3.65.21-.19.54-.34.83-.35.53-.01,1.08-.01,1.62-.01h2.01v1.35ZM17.03,29.79l.1.18s.41.76.56,1.02c.26.43.65.69,1.06.69s.74-.25.93-.67c.75-1.74,1.89-2.86,3.56-3.5.45-.62,1.04-.69,1.42-.69.25,0,.51.04.75.06l.32.04c4.83.48,8.69,3.86,9.82,8.59.49,2.06.39,4.14-.3,6.2-.1.32-.27.53-.74.53s-.96-.01-1.45-.01h-2.11s.12-.21.12-.21c1.17-2.1,1.4-4.13.75-6.22-.49-1.55-1.41-2.84-2.73-3.81-1.31-.96-2.84-1.46-4.44-1.46s-3.17.52-4.48,1.49c-1.01.74-1.79,1.68-2.32,2.81-.54,1.14-.78,2.36-.71,3.63.05,1.19.4,2.36,1.09,3.56l.12.22h-1.81c-.69,0-1.35-.01-2.01-.03-.23,0-.41-.35-.47-.51-1.22-3.79-.63-7.33,1.72-10.5.22-.28.47-.56.73-.84l.52-.58Zm-1.83-3.06l-.31-.09.27-.17c.27-.16.53-.3.79-.44.54-.28,1.01-.54,1.37-.91.36-.35.61-.83.89-1.37.13-.25.26-.51.41-.78l.17-.27.1.31c.57,1.75,1.61,2.82,3.26,3.37l.39.13-.39.14c-1.66.63-2.75,1.72-3.33,3.35l-.14.39-.13-.39c-.6-1.67-1.7-2.73-3.37-3.28Zm32.55,8.73c-.75-1.99-2.34-3.59-4.49-4.47-.21-.08-.35-.17-.43-.28-1-1.33-2.21-2.45-3.72-3.42l-.32-.19.38-.06c.58-.1,1.17-.16,1.74-.16s1.18.05,1.75.17c4.73.93,8.12,4.31,9.05,9.04.38,1.9.22,3.83-.47,5.74-.06.18-.3.4-.49.4-.6.03-1.19.03-1.8.03h-1.64l-.16-.13.05-.18c.01-.08.04-.14.06-.21,1.05-2.06,1.22-4.29.49-6.27Zm-3.41-2.06l.03-.16.25-.16s.31.34.43.47c.26.27.52.53.73.83,1.62,2.19,1.61,5.26-.04,7.45-.13.19-.34.4-.66.4-.12,0-.23-.01-.36-.06l-.13-.05.04-.13c.91-2.88.82-5.76-.27-8.59Zm-.65,2.06c.52,2.1.4,4.22-.31,6.28-.06.19-.31.48-.54.48-.61.01-1.2.03-1.83.03h-1.92l.12-.22c.75-1.31,1.11-2.58,1.11-3.91.01-3.23-2.03-6.1-5.09-7.18-.31-.1-.6-.35-.8-.56-.22-.22-.44-.47-.66-.7-.31-.34-.62-.67-.97-.98-.25-.23-.52-.44-.8-.66-.34-.26-.69-.53-1.04-.85l-.27-.25h.38c.28-.01.58-.03.87-.03.34-.01.69-.03,1.02-.03.31,0,.61,0,.92.04,4.75.45,8.7,3.87,9.82,8.54Zm-7.64-2.37l-.04-.1.32-.26.09.1.47.47c.35.35.71.7,1,1.09,1.57,2.12,1.62,4.96.13,7.21-.19.31-.49.66-1.01.66-.14,0-.29-.03-.44-.08l-.14-.05.04-.13c.95-3.02.8-6.02-.41-8.91Zm-6.31,8.69c-.22.32-.48.47-.89.47-.63,0-1.26-.01-1.89-.01h-3.5s-2.43.01-3.1.01c-.34,0-.57-.12-.76-.4-1.49-2.14-1.68-4.35-.57-6.57,1.11-2.24,3.02-3.43,5.49-3.48h.14c2.49,0,4.4,1.18,5.56,3.41,1.15,2.19.98,4.4-.48,6.58Zm24.19,1.75v1.7H11.4v-1.7h42.53Zm-22.37,4.9c.69-.58,1.35-1.14,2.02-1.71.06-.04.26-.19.49-.19.83-.01,1.66-.01,2.49-.01h2.91c.05.01.1.03.25.09l.25.09-.21.17c-2.1,1.61-4.43,2.42-6.96,2.42-.56,0-1.14-.04-1.72-.13l-.34-.04.82-.69Zm-6.9.84c-2.63,0-5.12-.88-6.99-2.47l-.31-.26h14.53l-.28.26c-1.8,1.57-4.33,2.47-6.94,2.47Zm15.04-.83c.71-.61,1.42-1.22,2.14-1.81.13-.12.34-.13.41-.13h5.1c.05.01.1.03.27.09l.26.09-.22.17c-2.14,1.63-4.43,2.43-6.97,2.43-.49,0-1-.04-1.5-.09l-.32-.04.83-.71Zm14.26-6.23h-1.53l.19-.66c.62-2.21.65-4.43.09-6.59-1.45-5.48-6.4-9.31-12.05-9.31-1.19,0-2.38.17-3.55.51-.12.04-.25.05-.39.05s-.28-.03-.41-.05c-1.17-.34-2.36-.52-3.54-.52s-2.45.18-3.68.54c-.12.04-.25.06-.39.06s-.28-.03-.41-.06c-1.27-.36-2.46-.54-3.64-.54-.26,0-.53.01-.87.04-.22,0-.45-.08-.66-.16-1.68-.66-2.8-1.74-3.38-3.33-.18-.49-.56-.78-1.08-.78-.62.01-.91.43-1.05.78-.61,1.58-1.71,2.68-3.28,3.29-.35.13-.76.43-.78,1.04-.01.47.23.82.79,1.1.4.22.8.44,1.22.66l.83.47-.14.14c-1.85,1.72-3.06,3.7-3.67,6.06-.6,2.33-.52,4.71.23,7.08l.06.19h-1.54v-19.69c0-1.27.39-1.66,1.67-1.66h39.33c1.18,0,1.59.41,1.59,1.58v19.75Z"/>
      </g>
      <g>
        <path class="cls-1" d="m39.03,12.86c-.45-.45-1.06-.7-1.71-.7-1.35,0-2.4,1.04-2.41,2.38,0,1.35,1.04,2.41,2.36,2.42h.03c1.36,0,2.42-1.04,2.43-2.38,0-.65-.25-1.27-.7-1.72Zm-1.71,2.9c-.62,0-1.18-.54-1.19-1.17-.01-.31.12-.62.34-.85.22-.23.53-.36.84-.38h.01c.62,0,1.19.57,1.19,1.2s-.54,1.17-1.19,1.19Z"/>
        <path class="cls-1" d="m39.03,12.86c-.45-.45-1.06-.7-1.71-.7-1.35,0-2.4,1.04-2.41,2.38,0,1.35,1.04,2.41,2.36,2.42h.03c1.36,0,2.42-1.04,2.43-2.38,0-.65-.25-1.27-.7-1.72Zm-1.71,2.9c-.62,0-1.18-.54-1.19-1.17-.01-.31.12-.62.34-.85.22-.23.53-.36.84-.38h.01c.62,0,1.19.57,1.19,1.2s-.54,1.17-1.19,1.19Z"/>
      </g>
      <g>
        <path class="cls-1" d="m43.31,12.16c-1.35,0-2.43,1.08-2.45,2.4,0,1.31,1.1,2.41,2.4,2.41h.01c1.35,0,2.45-1.08,2.45-2.4s-1.1-2.41-2.41-2.41Zm.82,3.25c-.22.22-.52.35-.83.35s-.61-.13-.83-.35c-.22-.22-.35-.53-.35-.85,0-.63.5-1.17,1.14-1.19h.04c.62,0,1.15.54,1.17,1.18,0,.32-.12.63-.34.87Z"/>
        <path class="cls-1" d="m43.31,12.16c-1.35,0-2.43,1.08-2.45,2.4,0,1.31,1.1,2.41,2.4,2.41h.01c1.35,0,2.45-1.08,2.45-2.4s-1.1-2.41-2.41-2.41Zm.82,3.25c-.22.22-.52.35-.83.35s-.61-.13-.83-.35c-.22-.22-.35-.53-.35-.85,0-.63.5-1.17,1.14-1.19h.04c.62,0,1.15.54,1.17,1.18,0,.32-.12.63-.34.87Z"/>
      </g>
      <g>
        <path class="cls-1" d="m49.28,12.16c-1.36,0-2.43,1.05-2.43,2.4s1.08,2.41,2.43,2.41,2.38-1.06,2.38-2.4-1.05-2.41-2.38-2.41Zm.84,3.21c-.22.23-.53.38-.87.39-.61,0-1.18-.57-1.19-1.19,0-.61.53-1.17,1.14-1.2h.06c.61,0,1.17.54,1.19,1.17,0,.3-.12.61-.34.84Z"/>
        <path class="cls-1" d="m49.28,12.16c-1.36,0-2.43,1.05-2.43,2.4s1.08,2.41,2.43,2.41,2.38-1.06,2.38-2.4-1.05-2.41-2.38-2.41Zm.84,3.21c-.22.23-.53.38-.87.39-.61,0-1.18-.57-1.19-1.19,0-.61.53-1.17,1.14-1.2h.06c.61,0,1.17.54,1.19,1.17,0,.3-.12.61-.34.84Z"/>
      </g>
    </g>
    <rect class="cls-2" x=".5" y=".5" width="64.31" height="64.31" rx="4.61" ry="4.61"/>
  </g>
</svg>